<svg width="96" height="17" viewBox="0 0 96 17" fill="none" xmlns="http://www.w3.org/2000/svg">
<path d="M0.681365 15.2204C2.53389 14.2381 3.45636 12.9912 3.44879 11.4794L3.4079 3.32328L0.955774 3.33594L0.945595 1.30569L6.11351 1.279L6.16475 11.5006C6.17033 12.6139 5.7712 13.6443 4.96734 14.5918C4.16349 15.5393 3.03638 16.2922 1.58603 16.8505L0.681365 15.2204ZM18.4254 1.21543L21.1852 1.20119L21.2492 13.9628L18.4894 13.977L18.4621 8.51907L13.1887 8.5463L13.216 14.0043L10.4651 14.0185L10.4011 1.25687L13.1521 1.24266L13.1782 6.46331L18.4516 6.43609L18.4254 1.21543ZM30.9475 0.992575C31.6213 0.989096 32.2927 1.07352 32.9615 1.24585C33.6362 1.41229 34.2409 1.64941 34.7757 1.9572L33.9679 3.86863C33.4627 3.631 32.9961 3.46055 32.5678 3.35729C32.1454 3.24815 31.7174 3.19469 31.2838 3.19693C30.0709 3.20319 29.1499 3.57416 28.5208 4.30985C27.8975 5.0455 27.5893 6.11058 27.5963 7.5051C27.6034 8.92305 27.9223 9.99662 28.5529 10.7258C29.1894 11.4491 30.114 11.8076 31.3269 11.8013C32.2644 11.7965 33.2418 11.5776 34.2592 11.1446L34.9373 13.1538C33.6219 13.7465 32.3021 14.0463 30.9778 14.0532C28.9857 14.0635 27.4565 13.5118 26.3904 12.3981C25.3242 11.2786 24.7859 9.67004 24.7753 7.5724C24.7686 6.2189 25.0088 5.04869 25.496 4.06179C25.9833 3.07488 26.6885 2.3183 27.6116 1.79204C28.5407 1.26575 29.6526 0.999261 30.9475 0.992575ZM48.9445 0.899653C49.6183 0.896174 50.2897 0.9806 50.9585 1.15293C51.6332 1.31937 52.2379 1.55649 52.7727 1.86428L51.9648 3.77571C51.4597 3.53808 50.9931 3.36763 50.5648 3.26437C50.1424 3.15522 49.7144 3.10177 49.2808 3.10401C48.0679 3.11027 47.1469 3.48124 46.5178 4.21692C45.8945 4.95258 45.5863 6.01766 45.5933 7.41218C45.6004 8.83013 45.9193 9.9037 46.5499 10.6329C47.1864 11.3562 48.111 11.7147 49.3239 11.7084C50.2614 11.7036 51.2388 11.4847 52.2562 11.0517L52.9343 13.0609C51.6189 13.6536 50.299 13.9534 48.9748 13.9603C46.9827 13.9705 45.4535 13.4189 44.3874 12.3052C43.3212 11.1857 42.7829 9.57711 42.7723 7.47948C42.7656 6.12598 43.0058 4.95577 43.493 3.96886C43.9803 2.98196 44.6855 2.22538 45.6086 1.69912C46.5377 1.17283 47.6496 0.906339 48.9445 0.899653ZM55.9185 0.248401L58.6167 0.23447L58.6845 13.7695L55.9863 13.7834L55.9185 0.248401ZM62.7037 0.52099L65.4019 0.507058L65.4142 2.96797L62.716 2.9819L62.7037 0.52099ZM62.7233 4.42329L65.4215 4.40936L65.4682 13.7345L62.77 13.7484L62.7233 4.42329ZM71.9915 5.57956C72.8186 4.60262 73.9089 4.11065 75.2624 4.10367C76.2468 4.09858 77.007 4.3847 77.5431 4.96202C78.0792 5.53348 78.3499 6.34655 78.3552 7.40123L78.3866 13.6678L75.6884 13.6817L75.6577 7.56457C75.655 7.0138 75.5446 6.61592 75.3265 6.37095C75.1085 6.12598 74.7593 6.00473 74.2788 6.00721C73.8452 6.00945 73.4414 6.11115 73.0674 6.3123C72.6934 6.50759 72.393 6.77282 72.1661 7.10798L72.1992 13.6997L69.4922 13.7137L69.4449 4.28312L71.6949 4.2715L71.9915 5.57956ZM82.1597 0.420535L84.8579 0.406603L84.8702 2.86752L82.172 2.88145L82.1597 0.420535ZM82.1792 4.32284L84.8774 4.30891L84.9242 13.634L82.226 13.6479L82.1792 4.32284ZM93.0836 4.01165C94.0446 4.00669 94.9568 4.22464 95.8204 4.6655L95.2317 6.45275C94.5913 6.12206 93.9723 5.95827 93.3747 5.96135C92.5954 5.96538 91.9931 6.22044 91.5679 6.72655C91.1486 7.23263 90.9412 7.94563 90.9458 8.86554C90.9504 9.77959 91.1708 10.4845 91.6068 10.9803C92.0488 11.4761 92.6799 11.7219 93.5002 11.7176C94.174 11.7142 94.8325 11.5672 95.4756 11.2768L95.9154 13.1114C95.4828 13.307 95.0148 13.4589 94.5115 13.5669C94.0081 13.675 93.5279 13.7302 93.0709 13.7326C91.5123 13.7406 90.3178 13.3278 89.4874 12.4942C88.6571 11.6606 88.2379 10.4557 88.23 8.87956C88.2223 7.34442 88.6412 6.15279 89.4866 5.30466C90.3319 4.45067 91.5309 4.01967 93.0836 4.01165Z" fill="#3497F9"/>
</svg>
