<svg width="22" height="16" viewBox="0 0 22 16" fill="none" xmlns="http://www.w3.org/2000/svg">
<path d="M15.6379 7.83C16.1666 7.83 16.6834 7.67323 17.123 7.37952C17.5626 7.08581 17.9052 6.66834 18.1075 6.17991C18.3098 5.69149 18.3627 5.15404 18.2596 4.63552C18.1564 4.11701 17.9019 3.64073 17.528 3.26691C17.1542 2.89308 16.6779 2.6385 16.1594 2.53536C15.6409 2.43222 15.1035 2.48516 14.615 2.68747C14.1266 2.88978 13.7091 3.23239 13.4154 3.67196C13.1217 4.11154 12.9649 4.62833 12.9649 5.157C12.9639 5.50832 13.0323 5.85638 13.1663 6.18116C13.3002 6.50594 13.4971 6.80103 13.7455 7.04945C13.9939 7.29787 14.289 7.49473 14.6138 7.62868C14.9386 7.76264 15.2866 7.83106 15.6379 7.83ZM7.62194 6.761C8.25614 6.7608 8.87604 6.57257 9.40328 6.22011C9.93051 5.86764 10.3414 5.36677 10.584 4.78081C10.8266 4.19484 10.89 3.55011 10.7663 2.9281C10.6425 2.3061 10.3371 1.73476 9.88863 1.28631C9.44018 0.837863 8.86884 0.532447 8.24684 0.408672C7.62484 0.284897 6.9801 0.348322 6.39414 0.590928C5.80817 0.833535 5.3073 1.24443 4.95483 1.77166C4.60237 2.2989 4.41414 2.9188 4.41394 3.553C4.41209 3.9748 4.4938 4.39279 4.65436 4.78284C4.81492 5.17289 5.05115 5.52727 5.34941 5.82553C5.64767 6.12379 6.00205 6.36002 6.3921 6.52058C6.78215 6.68114 7.20014 6.76285 7.62194 6.761ZM15.6379 9.968C13.6819 9.968 9.75794 10.952 9.75794 12.908V15.313H21.5179V12.908C21.5199 10.951 17.5959 9.968 15.6379 9.968ZM7.62194 8.899C5.13094 8.899 0.137939 10.146 0.137939 12.641V15.314H7.62194V12.908C7.65135 12.1135 7.90489 11.3436 8.35328 10.6871C8.80167 10.0307 9.42661 9.5144 10.1559 9.198C9.32298 9.01632 8.47431 8.91618 7.62194 8.899Z" fill="#7F8F98"/>
</svg>
